<?xml version="1.0" encoding="UTF-8"?>
<svg width="100pt" height="100pt" version="1.1" viewBox="0 0 100 100" xmlns="http://www.w3.org/2000/svg">
 <path fill="white" d="m30.266 10.008c-1.7266 0.007813-3.1211 1.4141-3.1133 3.1406v11.211h-24.02c-0.83203-0.003906-1.6328 0.32422-2.2188 0.91406-0.58984 0.58984-0.92187 1.3906-0.91797 2.2227v14.812h100.01v-14.812c0.003906-0.82812-0.32422-1.625-0.91016-2.2148s-1.3789-0.92188-2.2109-0.92188h-24.035v-11.211c0.007813-1.7266-1.3867-3.1328-3.1133-3.1406zm3.1367 6.2578h33.195v8.0938h-33.195zm-33.406 32.293v38.32c0.0078125 1.7227 1.4141 3.1172 3.1367 3.1094h93.75c1.7188 0 3.1133-1.3906 3.1211-3.1094v-38.316z"/>
</svg>
