<?xml version="1.0" encoding="UTF-8"?>
<svg width="100pt" height="100pt" version="1.1" viewBox="0 0 100 100" xmlns="http://www.w3.org/2000/svg">
 <g fill="#2767B2">
  <path d="m80.438 9.9844h-60.875c-5.2578 0-9.5625 4.3008-9.5625 9.5625v9.3711h80v-9.3711c0-5.2617-4.3047-9.5625-9.5625-9.5625zm-58.535 12.812c-1.8516 0-3.3477-1.4961-3.3477-3.3477 0-1.8516 1.4961-3.3477 3.3477-3.3477 1.8203 0 3.3203 1.4961 3.3203 3.3477-0.003906 1.8516-1.5 3.3477-3.3203 3.3477zm10 0c-1.8516 0-3.3477-1.4961-3.3477-3.3477 0-1.8516 1.4961-3.3477 3.3477-3.3477 1.8203 0 3.3203 1.4961 3.3203 3.3477-0.003906 1.8516-1.5 3.3477-3.3203 3.3477zm10 0c-1.8516 0-3.3477-1.4961-3.3477-3.3477 0-1.8516 1.4961-3.3477 3.3477-3.3477 1.8203 0 3.3203 1.4961 3.3203 3.3477-0.003906 1.8516-1.5 3.3477-3.3203 3.3477z"/>
  <path d="m10 80.453c0 5.2617 4.3047 9.5625 9.5625 9.5625h60.875c5.2578 0 9.5625-4.3008 9.5625-9.5625v-44.871h-80zm26-10.438c2.1016-3.8008 5.6992-6.6328 10-7.7344-2.1328-1.332-3.5664-3.7344-3.5664-6.4648 0-4.168 3.3672-7.5664 7.5664-7.5664 4.168 0 7.5664 3.3984 7.5664 7.5664 0 2.7344-1.4648 5.168-3.6328 6.5 4.4648 1.1328 8.168 4.168 10.199 8.1992 1.6016 3.1328-0.93359 6.832-4.4336 6.832h-19.465c-3.7695 0.003906-6.0352-4.0312-4.2344-7.332z"/>
 </g>
</svg>
